# xmcd
# Track frame offsets:
# 150
# 16650
# 32025
# 48075
# 66288
# 82690
# 97165
# 114026
# 132993
#
# Disc length: 2009 seconds
# Revision: 0
# Processed by: cddbd v1.5.1PL0 Copyright (c) Steve Scherf et al.
# Submitted via: VisiTrax 2.9.10.228 - For more info visit www.synapsa.com
#
DISCID=6207d709
DTITLE=Various Artist - Hits Monthly Nashville  PHN0306
DYEAR=1900
DGENRE=Karaoke
TTITLE0=Paisley, Brad - Celebrity
TTITLE1=Mccomas, Brian - 99.9% Sure
TTITLE2=Black, Clint - Iraq And Roll
TTITLE3=Worley, Darryl - Have You Forgotton
TTITLE4=Lonestar - My Front Porch Looking In
TTITLE5=Byrd, Tracy - Truth About Men, The
TTITLE6=Clark, Terri - Three Mississippi
TTITLE7=Adkins, Trace - Then They Do
TTITLE8=Rimes, LeAnn - Suddenly
EXTD=
EXTT0=
EXTT1=
EXTT2=
EXTT3=
EXTT4=
EXTT5=
EXTT6=
EXTT7=
EXTT8=
PLAYORDER=
